<?xml version="1.0" standalone="no"?>
<!DOCTYPE svg PUBLIC "-//W3C//DTD SVG 20010904//EN"
 "http://www.w3.org/TR/2001/REC-SVG-20010904/DTD/svg10.dtd">
<svg version="1.0" xmlns="http://www.w3.org/2000/svg"
 width="1600.000000pt" height="1600.000000pt" viewBox="0 0 1600.000000 1600.000000"
 preserveAspectRatio="xMidYMid meet">
<metadata>
Created by potrace 1.16, written by Peter Selinger 2001-2019
</metadata>
<g transform="translate(0.000000,1600.000000) scale(0.100000,-0.100000)"
fill="white" stroke="none">
<path d="M8976 15351 c28 -26 1675 -1171 1684 -1171 12 0 2097 1155 2115 1171
5 5 -830 9 -1900 9 -1101 0 -1905 -4 -1899 -9z"/>
<path d="M6920 14671 c-685 -251 -1259 -465 -1277 -474 -39 -21 113 119 -1558
-1435 -770 -717 -1414 -1320 -1432 -1340 -36 -43 -1653 -2815 -1653 -2835 0
-11 1097 -2628 1103 -2633 1 -1 725 161 1609 360 l1607 361 1963 1825 1963
1825 524 1662 c287 914 521 1667 519 1672 -5 16 -2081 1464 -2103 1468 -11 1
-580 -204 -1265 -456z"/>
<path d="M13580 15081 c-14 -10 -550 -309 -1192 -666 -643 -356 -1168 -651
-1168 -654 1 -7 3933 -2862 3937 -2858 5 5 72 335 102 502 79 442 106 728 97
1025 -16 552 -113 981 -310 1385 -280 571 -697 961 -1327 1240 -56 25 -104 45
-108 45 -3 0 -17 -9 -31 -19z"/>
<path d="M10825 13248 c-19 -50 -873 -2773 -870 -2776 3 -3 4540 97 4565 101
11 2 -3605 2637 -3678 2681 -7 4 -14 2 -17 -6z"/>
<path d="M12330 9893 c-1300 -30 -2366 -55 -2367 -57 -5 -4 1611 -4936 1617
-4936 7 0 428 469 579 644 1251 1453 2092 2788 2633 4176 44 113 82 211 85
218 6 15 268 20 -2547 -45z"/>
<path d="M7722 8053 c-909 -845 -1649 -1539 -1645 -1543 4 -4 1108 -431 2453
-949 1345 -519 2451 -945 2458 -948 6 -3 12 1 12 8 0 13 -1607 4934 -1619
4956 -4 7 -638 -575 -1659 -1524z"/>
<path d="M15090 8819 c0 -19 -301 -614 -409 -808 -643 -1157 -1452 -2243
-2619 -3516 -111 -121 -202 -224 -202 -230 1 -5 587 -530 1304 -1165 716 -635
1317 -1173 1334 -1196 28 -36 37 -54 58 -123 3 -8 6 -12 9 -9 2 2 124 1568
269 3479 146 1910 268 3498 271 3527 3 32 1 52 -5 52 -5 0 -10 -5 -10 -11z"/>
<path d="M640 5911 c0 -1042 2 -1892 4 -1890 13 14 919 1576 919 1584 0 8
-830 1988 -907 2165 -14 32 -15 -151 -16 -1859z"/>
<path d="M3686 5664 c-742 -167 -1351 -305 -1353 -307 -3 -4 1485 -4268 1493
-4276 2 -2 6 -2 8 0 2 2 228 893 501 1979 273 1086 550 2185 615 2443 99 392
116 467 102 466 -10 -1 -624 -138 -1366 -305z"/>
<path d="M5059 3363 c-361 -1434 -656 -2609 -655 -2610 6 -7 410 66 631 113
1567 339 3053 1068 4540 2228 453 354 1137 939 1118 956 -7 7 -4930 1908
-4963 1917 -12 3 -140 -491 -671 -2604z"/>
<path d="M1288 3879 l-548 -941 31 -120 c291 -1153 1035 -1844 2222 -2063 156
-28 287 -43 287 -31 -1 23 -1428 4090 -1436 4093 -5 1 -255 -421 -556 -938z"/>
<path d="M11180 3632 c-1086 -987 -2040 -1694 -3040 -2251 -175 -98 -639 -332
-829 -419 -63 -29 -112 -54 -110 -56 5 -4 6996 469 7074 479 28 3 64 13 80 21
l30 14 -30 -7 c-16 -5 -64 -8 -106 -8 -65 0 -84 4 -132 30 -40 21 -450 379
-1368 1195 -721 641 -1320 1172 -1332 1181 -21 16 -27 12 -237 -179z"/>
</g>
</svg>
